<?xml version="1.0" encoding="utf-8"?>
<!-- Generator: Adobe Illustrator 25.0.1, SVG Export Plug-In . SVG Version: 6.00 Build 0)  -->
<svg version="1.1" id="Layer_1" xmlns="http://www.w3.org/2000/svg" xmlns:xlink="http://www.w3.org/1999/xlink" x="0px" y="0px"
	 viewBox="0 0 24 24" style="enable-background:new 0 0 24 24;" xml:space="preserve">
<style type="text/css">
	.st0{fill:#2196F3;}
	.st1{fill:#2F86C1;}
	.st2{fill:#EFE7E4;}
	.st3{fill:#D8D1D0;}
	.st4{fill:#546F7A;}
	.st5{fill:#F7CB4F;}
	.st6{fill:#F4B008;}
	.st7{fill:#68B9D8;}
	.st8{fill:#3695B2;}
	.st9{fill:#2092D1;}
	.st10{fill:#FFC89F;}
	.st11{fill:#F7B081;}
</style>
<g>
	<path class="st0" d="M18.7,8.6c-0.3-2-1.4-3.9-3-5.3C14.1,2,12.1,1.2,10,1.2c-4.9,0-8.8,4-8.8,8.8s4,8.8,8.8,8.8
		c1,0,1.9-0.2,2.8-0.5l0.1,0l0.1-0.1c0.7-1,1.8-1.8,3-2.1l0,0c0,0,0.1,0,0.1,0l0,0c0,0,0.1,0,0.1,0l0,0c0,0,0,0,0,0l0.1,0l0.1-0.1
		c0.1-0.1,0.1-0.1,0.2-0.2l0.3-0.4l-0.5-0.1c-0.9-0.3-1.6-1.2-1.6-2.1v-2.2c0-1.2,1-2.2,2.2-2.2c0.4,0,0.7,0.1,1.1,0.3l0.6,0.3
		L18.7,8.6z"/>
	<g>
		<path class="st1" d="M14.9,13.1v-2.2c0-1,0.7-1.9,1.6-2.2c-0.2-0.1-0.4-0.1-0.6-0.1c-1.2,0-2.2,1-2.2,2.2v2.2c0,1,0.7,1.9,1.6,2.1
			l0.5,0.1l-0.3,0.4c-0.1,0.1-0.1,0.1-0.2,0.2L15.2,16l-0.1,0c0,0,0,0,0,0l0,0c0,0-0.1,0-0.1,0l0,0c0,0-0.1,0-0.1,0l0,0
			c-1.2,0.3-2.3,1.1-3,2.1l-0.1,0.1l-0.1,0c-0.7,0.2-1.4,0.4-2.2,0.4c0.2,0,0.4,0,0.6,0c1,0,1.9-0.2,2.8-0.5l0.1,0l0.1-0.1
			c0.7-1,1.8-1.8,3-2.1l0,0c0,0,0.1,0,0.1,0l0,0c0,0,0.1,0,0.1,0l0,0c0,0,0,0,0,0l0.1,0l0.1-0.1c0.1-0.1,0.1-0.1,0.2-0.2l0.3-0.4
			l-0.5-0.1C15.6,15,14.9,14.1,14.9,13.1z"/>
		<path class="st1" d="M18.7,8.6c-0.3-2-1.4-3.9-3-5.3C14.1,2,12.1,1.2,10,1.2c-0.2,0-0.4,0-0.6,0c1.9,0.1,3.7,0.9,5.1,2.1
			c1.6,1.4,2.6,3.2,3,5.3l0,0.1c0.2,0,0.5,0.1,0.7,0.2l0.6,0.3L18.7,8.6z"/>
	</g>
	<path class="st2" d="M16.9,8.4c-0.4-1.5-1.2-2.9-2.5-3.9c-1.3-1-2.8-1.5-4.4-1.5c-3.9,0-7.1,3.2-7.1,7.1c0,3.9,3.2,7.1,7.1,7.1
		c2,0,3.9-0.9,5.3-2.4l0.2-0.2l-0.1-0.2c-0.2-0.4-0.4-0.8-0.4-1.2v-2.2c0-1,0.7-1.9,1.7-2.2l0.3-0.1L16.9,8.4z"/>
	<path class="st3" d="M16.9,8.4c-0.4-1.5-1.2-2.9-2.5-3.9c-1.3-1-2.8-1.5-4.4-1.5c-0.2,0-0.4,0-0.6,0c1.4,0.1,2.7,0.6,3.8,1.5
		c1.2,1,2.1,2.4,2.5,3.9l0.1,0.3l-0.3,0.1c-1,0.2-1.7,1.1-1.7,2.2v2.2c0,0.4,0.1,0.9,0.4,1.2l0.1,0.2l-0.2,0.2
		c-1.2,1.4-2.9,2.2-4.7,2.3c0.2,0,0.4,0,0.6,0c2,0,3.9-0.9,5.3-2.4l0.2-0.2l-0.1-0.2c-0.2-0.4-0.4-0.8-0.4-1.2v-2.2
		c0-1,0.7-1.9,1.7-2.2l0.3-0.1L16.9,8.4z"/>
	<g>
		<path class="st4" d="M10,9.3C9.8,9.3,9.7,9.2,9.7,9V5.2C9.7,5,9.8,4.9,10,4.9s0.3,0.1,0.3,0.3V9C10.3,9.2,10.2,9.3,10,9.3z"/>
		<path class="st4" d="M7.5,13.1c-0.1,0-0.2,0-0.2-0.1c-0.1-0.1-0.1-0.3,0-0.4l1.9-2c0.1-0.1,0.3-0.1,0.4,0c0.1,0.1,0.1,0.3,0,0.4
			l-1.9,2C7.7,13.1,7.6,13.1,7.5,13.1z"/>
	</g>
	<path class="st5" d="M10,8.7c-0.7,0-1.3,0.6-1.3,1.3c0,0.7,0.6,1.3,1.3,1.3c0.7,0,1.3-0.6,1.3-1.3C11.3,9.3,10.7,8.7,10,8.7z"/>
	<path class="st6" d="M10,8.7c-0.2,0-0.4,0-0.6,0.1C9.9,9,10.2,9.5,10.2,10c0,0.5-0.3,1-0.7,1.2c0.2,0.1,0.4,0.1,0.6,0.1
		c0.7,0,1.3-0.6,1.3-1.3C11.3,9.3,10.7,8.7,10,8.7z"/>
	<path class="st7" d="M17.2,15.3C17.2,15.3,17.2,15.3,17.2,15.3c-3.1,0-5.7,2.6-5.7,5.5v1.7c0,0.2,0.1,0.3,0.3,0.3h10.7
		c0.2,0,0.3-0.1,0.3-0.3v-1.7C22.8,17.9,20.2,15.4,17.2,15.3z"/>
	<path class="st8" d="M17.2,15.3C17.2,15.3,17.2,15.3,17.2,15.3c-0.2,0-0.4,0-0.6,0c2.8,0.3,5.1,2.7,5.1,5.4v1.7
		c0,0.2-0.1,0.3-0.3,0.3h1.2c0.2,0,0.3-0.1,0.3-0.3v-1.7C22.8,17.9,20.2,15.4,17.2,15.3z"/>
	<path class="st0" d="M18.8,20.2L18.1,17c0-0.1-0.2-0.3-0.3-0.3h-1.3c-0.2,0-0.3,0.1-0.3,0.3l-0.7,3.2c0,0.1,0,0.2,0.1,0.3l1.4,1.2
		c0.1,0.1,0.1,0.1,0.2,0.1c0.1,0,0.2,0,0.2-0.1l1.4-1.2C18.8,20.4,18.9,20.3,18.8,20.2z"/>
	<g>
		<path class="st9" d="M16.8,16.8l0.8,3.5l-1.2,1.1l0.5,0.4c0.1,0.1,0.1,0.1,0.2,0.1s0.2,0,0.2-0.1l1.4-1.2c0.1-0.1,0.1-0.2,0.1-0.3
			L18.1,17c0-0.1-0.2-0.3-0.3-0.3L16.8,16.8L16.8,16.8L16.8,16.8z"/>
		<path class="st9" d="M17,15.3c0,0-0.1,0-0.1,0c0,0,0,0,0,0c-0.3,0-0.7,0.1-1,0.2c0,0,0,0,0,0c-0.1,0-0.3,0.1-0.4,0.1
			c0.1,0.2,0.2,0.3,0.2,0.3l0.6,1.2h1.9l0.6-1.2c0,0,0.1-0.2,0.2-0.3c-0.1,0-0.2-0.1-0.4-0.1c0,0,0,0,0,0c-0.3-0.1-0.7-0.1-1-0.2
			c0,0,0,0,0,0c0,0-0.1,0-0.1,0c0,0,0,0,0,0c-0.1,0-0.1,0-0.2,0c0,0,0,0,0,0C17.1,15.3,17,15.3,17,15.3C17,15.3,17,15.3,17,15.3z"/>
	</g>
	<path class="st1" d="M18.9,15.6c-0.1,0-0.2-0.1-0.4-0.1c0,0,0,0,0,0c-0.3-0.1-0.5-0.1-0.8-0.2l-0.8,1.8h0.2h1l0.6-1.2
		C18.8,15.9,18.8,15.8,18.9,15.6z"/>
	<path class="st10" d="M17.2,8c-1.6,0-2.9,1.3-2.9,2.9v2.2c0,1.6,1.3,2.9,2.9,2.9c1.6,0,2.9-1.3,2.9-2.9v-2.2C20,9.3,18.7,8,17.2,8z
		"/>
	<path class="st11" d="M17.2,8c-0.2,0-0.4,0-0.6,0.1c1.3,0.3,2.3,1.4,2.3,2.8v2.2c0,1.4-1,2.5-2.3,2.8c0.2,0,0.4,0.1,0.6,0.1
		c1.6,0,2.9-1.3,2.9-2.9v-2.2C20,9.3,18.7,8,17.2,8z"/>
	<path d="M20,12v-1.1C20,9.3,18.7,8,17.2,8s-2.9,1.3-2.9,2.9V12l0.3,0c2.2,0,3-1.5,3-1.5s0.6,1.5,2.1,1.5L20,12z"/>
</g>
</svg>
